# xmcd
#
# Track frame offsets:
#	225
#	17500
#	29300
#	41945
#	56064
#	79025
#	104805
#	126260
#	151560
#	176805
#	198425
#	220765
#	244380
#	256293
#	276425
#
# Disc length: 3925 seconds
#
# Revision: 1
# Processed by: cddbd v1.5.2PL0 Copyright (c) Steve Scherf et al.
# Submitted via: EasyCDDAExtractor 11.9.9.666
#
DISCID=da0f520f
DTITLE=Various Artist - History Of Explosive Cartuning 98/06
DYEAR=2006
DGENRE=House
TTITLE0=Kick-Side - Time To Blast
TTITLE1=Karlos Mendes - Sex A Phone
TTITLE2=Sturgeon - Blow Your Mind
TTITLE3=Da Warrior - Put Theneedle On Da Record
TTITLE4=Mad-Traxx - In The Future (Dj Max W Remix)
TTITLE5=Labotomy Inc - The Test
TTITLE6=Zone 52 - Obscura
TTITLE7=Tranceball - Dream Or Dream
TTITLE8=Voltage Club - The Sound Of Voltage Club
TTITLE9=Dj Greg C - Color Sound
TTITLE10=The Horrorist - Flesh Is The Fever
TTITLE11=Geal - Losing My Feelin'(Beholder § Balistic)
TTITLE12=Donkeyrollers - Motherf*Ck (Dj Zanny Remix)
TTITLE13=Deepack - Here's Johnny
TTITLE14=Dj Promo - Up Your's
EXTD=
EXTT0=
EXTT1=
EXTT2=
EXTT3=
EXTT4=
EXTT5=
EXTT6=
EXTT7=
EXTT8=
EXTT9=
EXTT10=
EXTT11=
EXTT12=
EXTT13=
EXTT14=
PLAYORDER=
